<svg xmlns="http://www.w3.org/2000/svg" xmlns:xlink="http://www.w3.org/1999/xlink" width="1592" height="760" viewBox="0 0 1592 760">
    <defs>
        <linearGradient id="prefix__c" x1="8.764%" x2="67.907%" y1="47.692%" y2="60.52%">
            <stop offset="0%" stop-color="#285CF5"/>
            <stop offset="100%" stop-color="#0434BF"/>
        </linearGradient>
        <filter id="prefix__b" width="101.8%" height="106.5%" x="-.9%" y="-5.8%" filterUnits="objectBoundingBox">
            <feMorphology in="SourceAlpha" operator="dilate" radius="1.5" result="shadowSpreadOuter1"/>
            <feOffset dy="-16" in="shadowSpreadOuter1" result="shadowOffsetOuter1"/>
            <feGaussianBlur in="shadowOffsetOuter1" result="shadowBlurOuter1" stdDeviation="8"/>
            <feColorMatrix in="shadowBlurOuter1" values="0 0 0 0 0 0 0 0 0 0.138001187 0 0 0 0 0.749547101 0 0 0 0.24 0"/>
        </filter>
        <path id="prefix__a" d="M109.112 9.343l1297.105 111.07c34.982 2.996 63.922 28.45 71.36 62.763l98.01 452.186c9.358 43.18-18.059 85.772-61.24 95.131-9.335 2.023-18.957 2.359-28.41.99L175.738 541.754c-32.755-4.743-59.207-29.166-66.544-61.44L24.277 106.787c-9.795-43.083 17.191-85.95 60.275-95.744 8.05-1.83 16.334-2.403 24.56-1.699z"/>
    </defs>
    <g fill="none" fill-rule="evenodd" transform="translate(-4 -13)">
        <g transform="rotate(180 800 374)">
            <use fill="#000" filter="url(#prefix__b)" xlink:href="#prefix__a"/>
            <use fill="url(#prefix__c)" xlink:href="#prefix__a"/>
        </g>
    </g>
</svg>
