<svg xmlns="http://www.w3.org/2000/svg" width="114" height="114" viewBox="0 0 114 114">
    <g fill="#A9B2C2" fill-rule="evenodd" opacity=".3">
        <circle cx="3" cy="3" r="3"/>
        <circle cx="15" cy="3" r="3"/>
        <circle cx="27" cy="3" r="3"/>
        <circle cx="39" cy="3" r="3"/>
        <circle cx="51" cy="3" r="3"/>
        <circle cx="63" cy="3" r="3"/>
        <circle cx="75" cy="3" r="3"/>
        <circle cx="87" cy="3" r="3"/>
        <circle cx="99" cy="3" r="3"/>
        <circle cx="111" cy="3" r="3"/>
        <g transform="translate(0 12)">
            <circle cx="3" cy="3" r="3"/>
            <circle cx="15" cy="3" r="3"/>
            <circle cx="27" cy="3" r="3"/>
            <circle cx="39" cy="3" r="3"/>
            <circle cx="51" cy="3" r="3"/>
            <circle cx="63" cy="3" r="3"/>
            <circle cx="75" cy="3" r="3"/>
            <circle cx="87" cy="3" r="3"/>
            <circle cx="99" cy="3" r="3"/>
            <circle cx="111" cy="3" r="3"/>
        </g>
        <g transform="translate(0 24)">
            <circle cx="3" cy="3" r="3"/>
            <circle cx="15" cy="3" r="3"/>
            <circle cx="27" cy="3" r="3"/>
            <circle cx="39" cy="3" r="3"/>
            <circle cx="51" cy="3" r="3"/>
            <circle cx="63" cy="3" r="3"/>
            <circle cx="75" cy="3" r="3"/>
            <circle cx="87" cy="3" r="3"/>
            <circle cx="99" cy="3" r="3"/>
            <circle cx="111" cy="3" r="3"/>
        </g>
        <g transform="translate(0 36)">
            <circle cx="3" cy="3" r="3"/>
            <circle cx="15" cy="3" r="3"/>
            <circle cx="27" cy="3" r="3"/>
            <circle cx="39" cy="3" r="3"/>
            <circle cx="51" cy="3" r="3"/>
            <circle cx="63" cy="3" r="3"/>
            <circle cx="75" cy="3" r="3"/>
            <circle cx="87" cy="3" r="3"/>
            <circle cx="99" cy="3" r="3"/>
            <circle cx="111" cy="3" r="3"/>
        </g>
        <g transform="translate(0 48)">
            <circle cx="3" cy="3" r="3"/>
            <circle cx="15" cy="3" r="3"/>
            <circle cx="27" cy="3" r="3"/>
            <circle cx="39" cy="3" r="3"/>
            <circle cx="51" cy="3" r="3"/>
            <circle cx="63" cy="3" r="3"/>
            <circle cx="75" cy="3" r="3"/>
            <circle cx="87" cy="3" r="3"/>
            <circle cx="99" cy="3" r="3"/>
            <circle cx="111" cy="3" r="3"/>
        </g>
        <g transform="translate(0 60)">
            <circle cx="3" cy="3" r="3"/>
            <circle cx="15" cy="3" r="3"/>
            <circle cx="27" cy="3" r="3"/>
            <circle cx="39" cy="3" r="3"/>
            <circle cx="51" cy="3" r="3"/>
            <circle cx="63" cy="3" r="3"/>
            <circle cx="75" cy="3" r="3"/>
            <circle cx="87" cy="3" r="3"/>
            <circle cx="99" cy="3" r="3"/>
            <circle cx="111" cy="3" r="3"/>
        </g>
        <g transform="translate(0 72)">
            <circle cx="3" cy="3" r="3"/>
            <circle cx="15" cy="3" r="3"/>
            <circle cx="27" cy="3" r="3"/>
            <circle cx="39" cy="3" r="3"/>
            <circle cx="51" cy="3" r="3"/>
            <circle cx="63" cy="3" r="3"/>
            <circle cx="75" cy="3" r="3"/>
            <circle cx="87" cy="3" r="3"/>
            <circle cx="99" cy="3" r="3"/>
            <circle cx="111" cy="3" r="3"/>
        </g>
        <g transform="translate(0 84)">
            <circle cx="3" cy="3" r="3"/>
            <circle cx="15" cy="3" r="3"/>
            <circle cx="27" cy="3" r="3"/>
            <circle cx="39" cy="3" r="3"/>
            <circle cx="51" cy="3" r="3"/>
            <circle cx="63" cy="3" r="3"/>
            <circle cx="75" cy="3" r="3"/>
            <circle cx="87" cy="3" r="3"/>
            <circle cx="99" cy="3" r="3"/>
            <circle cx="111" cy="3" r="3"/>
        </g>
        <g transform="translate(0 96)">
            <circle cx="3" cy="3" r="3"/>
            <circle cx="15" cy="3" r="3"/>
            <circle cx="27" cy="3" r="3"/>
            <circle cx="39" cy="3" r="3"/>
            <circle cx="51" cy="3" r="3"/>
            <circle cx="63" cy="3" r="3"/>
            <circle cx="75" cy="3" r="3"/>
            <circle cx="87" cy="3" r="3"/>
            <circle cx="99" cy="3" r="3"/>
            <circle cx="111" cy="3" r="3"/>
        </g>
        <g transform="translate(0 108)">
            <circle cx="3" cy="3" r="3"/>
            <circle cx="15" cy="3" r="3"/>
            <circle cx="27" cy="3" r="3"/>
            <circle cx="39" cy="3" r="3"/>
            <circle cx="51" cy="3" r="3"/>
            <circle cx="63" cy="3" r="3"/>
            <circle cx="75" cy="3" r="3"/>
            <circle cx="87" cy="3" r="3"/>
            <circle cx="99" cy="3" r="3"/>
            <circle cx="111" cy="3" r="3"/>
        </g>
    </g>
</svg>
