<svg xmlns="http://www.w3.org/2000/svg" width="66" height="80" viewBox="0 0 66 80">
    <g fill="#12224F">
        <path d="M11.316 50.686l38.375.036c.469 0 .85-.375.852-.837l.02-15.375c0-.285-.145-.55-.385-.703l-10.631-6.818v-.35c.003-1.424 1.18-2.585 2.629-2.585.057 0 .111-.005.164-.015h.002c.055-.01.107-.026.156-.046.053-.02.1-.046.144-.075 0 0 .002 0 .002-.002.047-.031.089-.064.128-.103.04-.038.076-.082.107-.126 0 0 0-.002.002-.002.029-.044.055-.093.076-.141v-.003c.02-.049.036-.1.047-.154v-.003c.01-.054.015-.107.015-.161l.003-2.847c0-.224-.088-.437-.247-.593-.16-.157-.376-.247-.602-.247l-10.603-.01c.44-.83.798-1.456 1.011-1.761.08-.116.3-.203.45-.2.688.023.811.046 1.499.1 2.05.154 4.58-.388 6.523-.817-.98-.074-1.678-.305-2.345-.533-.06-.031-.187-.106-.234-.165 2.568.447 4.689-.118 5.416-.495-1.227.028-2.624.028-3.757-.496 2.048-.043 4.835-.277 6.825-1.09-1.75-.024-3.623-.221-4.926-.791 1.555.018 1.829.056 2.821.107 2.626.134 4.502-.921 6.68-2.451 1.524-1.07.615-.388 2.946-2.316 3.931-4.474 7.42-5.827 11.243-6.559C63.941-.354 53.14.021 53.14.021s-4.916.567-6.786.947c-3.21.652-6.075 1.962-8.443 4.23-.732.702-1.428 1.439-2.139 2.16l-.093-.054 1.883-2.937c-1.704 1.15-2.8 2.824-4.108 4.351l.591-1.974C32.55 7.91 31.88 9.542 30.966 11.05c.086-.626.17-1.109.258-1.735.016-.062.195-.6.177-.673-.266.46-.89 1.356-1.078 1.844-.652 1.691-.498 3.39.007 5.095.105.352.102.763.032 1.127-.133.69-.347 1.369-.53 2.049 1.507-2.439 3.314-5.093 5.42-7.373 2.195-1.874 2.573-2.706 6.606-4.9 3.496-1.97 6.132-3.114 11.699-4.028-.097.043-3.955 1.104-4.017 1.122-2.884.818-5.554 2.174-8.055 3.786-1.266.816-2.733 1.825-3.897 2.78-1.573 1.289-1.542 1.44-3.126 3.145-1.16 1.137-2.699 3.514-4.233 6.235l-11.343-.015c-.469 0-.849.375-.851.837l-.003 2.847c0 .056.005.11.016.164.02.11.065.21.125.3.031.047.067.09.106.129.04.038.084.074.128.105 0 0 .003 0 .003.003.044.03.094.054.143.074h.003c.05.02.101.036.156.046h.003c.052.01.109.016.164.016.7 0 1.36.27 1.854.76.495.487.769 1.14.766 1.83v.352l-10.63 6.797c-.243.154-.389.419-.389.701l-.02 15.375c0 .223.088.436.247.593.166.161.383.249.61.249zm30.01-29.481v1.17l-10.795-.01h-.404c.2-.403.396-.796.584-1.17l10.615.01zm-12.014 2.837l9.427.007c-.552.709-.883 1.594-.89 2.552l-7.31-.008-2.423-.002c.383-.835.79-1.7 1.196-2.55zm-2.707 2.551l-3.397-.002c-.005-.935-.315-1.823-.883-2.555l5.52.006c-.44.87-.854 1.727-1.24 2.551zm-6.87-4.238v-1.17l9.582.007c-.208.388-.414.778-.617 1.17l-8.964-.007zM12.19 34.929l10.417-6.665 3.23.003c-.765 1.72-1.333 3.152-1.568 3.987-.205.734-.37 1.476-.554 2.215.536-.631 1.63-1.376 2.045-2.036.08-.128.166-.267.19-.41.101-.604.659-2.028 1.414-3.756l3.15.003 7.927.007 10.417 6.683-.02 14.083-36.674-.034.026-14.08z"/>
        <path d="M23.584 35.332c-5.917-.036-9.855 2.467-9.855 2.467l-.019 9.811 9.644.008 14.305.013 9.643.007.019-9.308s-4.377 1.88-9.647 1.854c-5.272-.023-8.11-4.816-14.09-4.852zM8.404 65.254l.028-.028c.683-.036 1.084-.072 1.209-.108.443-.226.69-.442.742-.65 0-.197-.255-.297-.768-.297-.521-.113-.852-.285-.987-.514-.2-.303-.303-.68-.303-1.137.055-.416.193-.621.412-.621h.193c.985.341 1.542.513 1.675.513h.193c.403 0 .732-.064.987-.19.586-.47.878-.865.878-1.19.292-.42.44-.7.44-.84v-.434l.274-.732v-.054c-.05-.523-.17-.785-.357-.785-.14 0-.279.305-.412.919l.029.513c0 .185-.073.365-.219.542-.458.721-.834 1.08-1.125 1.08l-.605.244h-.164c-.161 0-.289-.028-.385-.082-.37 0-.683-.161-.933-.487-.297-.136-.573-.514-.823-1.138-.256-.418-.386-.654-.386-.703 0-.064.047-.18.138-.352.12-.6.32-1.068.605-1.407.138-.338.411-.644.823-.918.174-.252.339-.38.495-.38h.714c.156 0 .403.125.742.38.115.213.26.392.44.541.352.452.618.675.797.675h.03c.072-.036.108-.09.108-.161-.09-.483-.182-.789-.273-.92-.14-.233-.352-.395-.63-.487-.508-.38-.92-.568-1.235-.568h-.302c-.26 0-.443.054-.55.162-.72.288-1.193.434-1.428.434-.156 0-.458-.118-.906-.352l-1.1-.136c-.289 0-.453.118-.494.352v.054c0 .203.338.32 1.015.352.238 0 .383.305.44.919l-.083.62.11.622v.108l-.193.811v.136c.164.573.247.917.247 1.027l-.109.732.083.567v.082l-.138.621v.054l.11.596v.136c0 .156-.219.382-.66.675-.567.234-.851.542-.851.92 0 .233.156.38.466.433l1.482-.216.495.054h.019v.013zM17.269 62.98c.542.097 1.193.177 1.956.236h.032c.114 0 .336-.05.661-.15 1.365-.484 2.048-.977 2.048-1.483v-.09c0-.164-.11-.293-.331-.385-.167 0-.396.128-.693.385l-.844.267c-.487.277-.888.416-1.204.416l-.541-.03c-.592-.06-.985-.16-1.175-.299-.443-.449-.803-.698-1.084-.741-.221-.07-.33-.208-.33-.416v-.208c0-.431.372-.737 1.114-.92h.482l.784-.176c.206 0 .547.059 1.024.177l.784-.15c.466 0 .92.04 1.355.119h.12c.104 0 .265-.06.481-.177.282-.298.422-.583.422-.86v-.031c0-.123-.06-.293-.18-.503-.14-.663-.31-1.137-.51-1.425-.758-.652-1.31-.978-1.657-.978l-1.234-.208h-.152c-.336 0-.768.16-1.294.475l-1.295.236c-.115 0-.255.218-.422.652-.31.336-.503.642-.573.92-.24.42-.362.767-.362 1.039v.059c0 .454.11.909.33 1.366 0 .362.18.726.543 1.098.06.321.161.57.302.742l.812.444c.326.37.534.568.63.599zm-1.204-5.433c.743-.752 1.175-1.126 1.295-1.126l1.266-.15 1.053.268c.862.416 1.294.831 1.294 1.245 0 .133-.05.282-.15.444 0 .084-.704.213-2.108.385l-1.115-.06h-.451l-.302.032c-.563-.193-.844-.45-.844-.773l.062-.265zM27.392 64.469c0-.198-.255-.298-.768-.298-.521-.113-.852-.285-.988-.514-.2-.303-.302-.68-.302-1.137.055-.416.193-.621.412-.621h.192c.985.341 1.543.513 1.675.513h.193c.401 0 .732-.064.988-.19.586-.47.877-.865.877-1.19.292-.42.44-.7.44-.84v-.434l.274-.732v-.054c-.05-.523-.17-.785-.357-.785-.14 0-.278.305-.411.919l.028.513c0 .185-.073.365-.218.542-.459.721-.834 1.08-1.126 1.08l-.604.244h-.164c-.162 0-.29-.028-.386-.082-.37 0-.682-.161-.933-.487-.296-.136-.573-.514-.823-1.138-.255-.418-.385-.654-.385-.703 0-.064.044-.18.138-.352.12-.6.32-1.068.604-1.407.138-.338.412-.644.823-.918.175-.252.34-.38.495-.38h.714c.156 0 .401.125.743.38.114.213.26.392.44.541.352.452.617.675.797.675h.026c.073-.036.11-.09.11-.161-.092-.483-.183-.789-.274-.92-.14-.233-.352-.395-.63-.487-.508-.38-.92-.568-1.235-.568h-.302c-.261 0-.443.054-.55.162-.72.288-1.193.434-1.428.434-.156 0-.458-.118-.906-.352l-1.097-.136c-.29 0-.453.118-.495.352v.054c0 .203.339.32 1.016.352.237 0 .386.305.44.919l-.083.62.11.622v.108l-.193.811v.136c.164.573.247.917.247 1.027l-.11.732.084.567v.082l-.138.621v.054l.11.596v.136c0 .156-.22.382-.66.675-.568.234-.852.542-.852.92 0 .233.157.38.467.433l1.482-.216.495.054h.026l.029-.028c.682-.036 1.083-.072 1.208-.108.435-.213.683-.429.735-.636zM35.27 64.469c0-.198-.256-.298-.769-.298-.52-.113-.852-.285-.987-.514-.2-.303-.302-.68-.302-1.137.055-.416.193-.621.411-.621h.193c.985.341 1.542.513 1.675.513h.193c.401 0 .732-.064.987-.19.586-.47.878-.865.878-1.19.292-.42.44-.7.44-.84v-.434l.274-.732v-.054c-.05-.523-.17-.785-.357-.785-.14 0-.279.305-.412.919l.03.513c0 .185-.074.365-.22.542-.458.721-.833 1.08-1.125 1.08l-.604.244h-.165c-.161 0-.289-.028-.385-.082-.37 0-.683-.161-.933-.487-.297-.136-.573-.514-.823-1.138-.255-.418-.385-.654-.385-.703 0-.064.046-.18.138-.352.12-.6.32-1.068.604-1.407.138-.338.412-.644.823-.918.175-.252.339-.38.495-.38h.714c.156 0 .404.125.742.38.115.213.26.392.44.541.352.452.618.675.798.675h.028c.073-.036.11-.09.11-.161-.091-.483-.183-.789-.274-.92-.14-.233-.351-.395-.63-.487-.508-.38-.92-.568-1.235-.568h-.302c-.26 0-.446.054-.55.162-.719.288-1.193.434-1.427.434-.157 0-.459-.118-.907-.352l-1.1-.136c-.288 0-.453.118-.494.352v.054c0 .203.338.32 1.016.352.237 0 .383.305.44.919l-.083.62.109.622v.108l-.193.811v.136c.164.573.248.917.248 1.027l-.11.732.084.567v.082l-.138.621v.054l.109.596v.136c0 .156-.219.382-.659.675-.568.234-.852.542-.852.92 0 .233.157.38.466.433l1.483-.216.495.054h.028l.029-.028c.682-.036 1.084-.072 1.209-.108.435-.213.682-.429.732-.636zM44.145 63.216c.115 0 .336-.05.662-.15 1.365-.484 2.047-.977 2.047-1.483v-.09c0-.164-.11-.293-.33-.385-.167 0-.397.128-.694.385l-.844.267c-.487.277-.888.416-1.203.416l-.542-.03c-.591-.06-.985-.16-1.175-.299-.443-.449-.802-.698-1.084-.741-.22-.07-.33-.208-.33-.416v-.208c0-.431.372-.737 1.115-.92h.481l.782-.176c.206 0 .547.059 1.024.177l.781-.15c.467 0 .92.04 1.355.119h.12c.104 0 .265-.06.482-.177.281-.298.422-.583.422-.86v-.031c0-.123-.06-.293-.18-.503-.14-.663-.313-1.137-.513-1.425-.758-.652-1.31-.978-1.657-.978l-1.235-.208h-.15c-.337 0-.77.16-1.296.475l-1.294.236c-.115 0-.256.218-.422.652-.31.336-.503.642-.573.92-.24.42-.363.767-.363 1.039v.059c0 .454.11.909.331 1.366 0 .362.18.726.542 1.098.06.321.162.57.302.742l.813.444c.326.367.537.565.633.593.542.098 1.193.178 1.957.237h.036v.005zm-3.191-5.669c.742-.752 1.175-1.126 1.294-1.126l1.264-.15 1.055.268c.862.416 1.295.831 1.295 1.245 0 .133-.05.282-.151.444 0 .084-.704.213-2.108.385l-1.115-.06h-.45l-.303.032c-.562-.193-.844-.45-.844-.773l.063-.265zM53.762 62.702c.587-.043.878-.208.878-.487v-.083c-.104-.38-.252-.567-.44-.567l-.411.054-.11-.028-1.263-.434c-.274 0-.412-.226-.412-.675l-.193-.973v-.082c0-.19.073-.56.22-1.11 0-.238.163-.492.494-.757.347-.451.649-.757.907-.919.513-.23.914-.356 1.208-.38h.165c.265 0 .43.19.494.568l-.028.27v.081c.17.488.435.732.797.732l.274-.054c.458-.22.685-.436.685-.65l-.11-.54c0-.55-.338-.948-1.016-1.192l-1.401-.162h-.138l-.988.406c-.174 0-.367.162-.575.488-.193.505-.368.757-.521.757-.201 0-.303-.126-.303-.38v-.488c-.164-.488-.64-.731-1.427-.731h-.138c-.29.071-.508.107-.66.107-.476.031-.713.16-.713.38 0 .103.073.203.219.298.404 0 .87.126 1.401.377.211 0 .375.342.495 1.027 0 .226-.028.452-.083.675l.055 1.027c0 .195-.037.365-.11.514-.06.613-.114.919-.164.919-.005.126-.406.37-1.209.729-.695.085-1.042.285-1.042.595v.083c0 .233.256.397.769.487.385.162.64.244.768.244h.055c.459-.162.75-.244.878-.244h.164c.274.013.412.041.412.082.544.018.974.065 1.29.137l.827-.1zM.961 75.687v-.27c.068-.308.123-.462.164-.462l.193-.785c.55-.527.888-.799 1.016-.812.49-.107.774-.19.852-.243l.604-.298h.138c.151 0 .407.126.769.38.495.18.742.308.742.38v.161c-.255.37-.385.614-.385.732 0 .447.265.698.797.757l.193-.028c.422-.172.63-.416.63-.732l-.029-.323c0-.362-.21-.685-.63-.973-.161-.288-.526-.513-1.1-.675-.26-.136-.46-.208-.604-.216l-.575.108c-.235-.054-.61-.1-1.126-.136-.315 0-.763.27-1.344.811l-.495.786c-.367.32-.55.672-.55 1.055-.148.493-.221.855-.221 1.08v.162c0 .257.219.465.66.622.158-.072.26-.432.301-1.081zM6.34 76.93h-.028c-.182 0-.495.16-.933.487-.406.631-.865.947-1.373.947l-.466-.028-.55.054c-.218-.044-.328-.09-.328-.136l-.852-.324c-.255-.392-.575-.708-.96-.947H.741c-.2.144-.302.316-.302.514v.082l.029.161c.401.555.604.853.604.894.11.203.375.382.797.541.357.234.63.352.824.352l.109-.028h.083l.769-.054.575.082h.055c.594-.208.951-.362 1.07-.46 1.061-.785 1.593-1.324 1.593-1.622-.003-.275-.204-.446-.607-.516zM15.208 76.064l-.075-.583v-.054l-.03-.27c-.163-.667-.429-1-.796-1h-.11c-.12 0-.18.061-.18.182 0 .082.03.192.084.331l.122.21c.164.286.26.73.29 1.333v.136c0 .172-.037.323-.11.46-.023.418-.06.662-.11.731-.273.46-.515.763-.726.906-.156.244-.443.514-.857.811-.024.05-.034.093-.034.129 0 .103.096.156.29.156.215 0 .671-.215 1.372-.649.237-.287.357-.596.357-.919.328-.454.495-.762.495-.919l-.029-.542v-.025l-.026-.029h.026l.047-.395zM11.337 79.08c-.654-.161-1.122-.513-1.406-1.055-.44-.305-.66-.613-.66-.919-.104-.323-.158-.641-.158-.952 0-.583.18-1.14.541-1.671.146-.267.48-.552 1.003-.86.394-.167.683-.25.865-.25.38 0 .818.083 1.318.245.339.118.613.251.824.405l.117.034h.138c.086-.083.13-.139.13-.17v-.136c0-.174-.128-.357-.385-.542-.193-.269-.477-.451-.852-.541-.399-.077-.771-.139-1.118-.182l-.255-.021c-.164 0-.32.049-.466.149-.162.095-.464.193-.912.29-.763.531-1.165.932-1.201 1.196-.386.573-.576.97-.576 1.191l.055.542-.11.757c0 .155.073.452.22.894.2.721.484 1.18.851 1.38.591.537 1.154.825 1.696.86l.61.088h.122c.388 0 .615-.08.68-.236v-.19l-.177-.128-.894-.177zM25.21 78.803c-.18-.136-.405-.26-.68-.372-.368-.203-.55-.429-.55-.675l.028-.704-.11-.595.084-.514-.167-.731.165-.675-.055-.406c-.091-.4-.196-.719-.315-.952-.055-.144-.125-.242-.214-.29-.122-.24-.57-.437-1.339-.596l-.412.054c-.44.1-.659.172-.659.215-.406.18-.763.398-1.07.65-.29.252-.48.38-.576.38h-.055c-.242 0-.424-.19-.55-.567 0-.34-.356-.537-1.07-.596h-.055c-.291.036-.44.154-.44.352v.054c.065.251.255.38.576.38.159.035.26.495.302 1.38l-.107.617v.244l.029.136-.11.621.11.811c0 .198-.037.47-.11.811 0 .28-.039.45-.117.509-.073.048-.159.074-.253.074h-.096c-.115 0-.263.026-.445.074-.363.018-.542.142-.542.373 0 .126.09.244.273.351.328.036.706.108 1.126.216.333-.077.614-.115.844-.115.145 0 .27.015.37.046l.705-.095c.238-.013.357-.095.357-.244v-.054c0-.09-.083-.198-.247-.323-.66-.221-.987-.419-.987-.596l.028-.865.029-.27-.164-.84c0-.207.101-.63.302-1.27.315-.23.526-.429.63-.595l.55-.244.466-.38c.38-.28.782-.419 1.21-.419.223 0 .442.072.658.216.26.234.45.472.57.716l.118.732c-.11.541-.164.911-.164 1.109v.488l-.11.433-.109.92c0 .238-.2.418-.604.541-.495.113-.74.267-.74.46 0 .292.292.464.878.513l1.263-.041c.388.064.72.095.987.095.412 0 .652-.082.722-.249v-.033c-.008-.142-.06-.229-.159-.265zM32.579 76.134c-.12 0-.203.138-.253.413-.091.51-.234.919-.424 1.23-.462.585-.889.878-1.277.878-.05 0-.099-.006-.143-.013l-.576-.414c-.297-.28-.445-.631-.445-1.055v-.19l.054-.65v-.053l-.164-.73.193-.649-.193-.947c.138-.657.456-.988.954-.988.06 0 .122.005.185.013h.411c.216 0 .362-.018.44-.054v.028l.03-.028h.082l.576.12h.138c.357-.064.537-.22.537-.472-.05-.252-.255-.377-.618-.377l-.55.082c-.155 0-.346-.036-.575-.108-.497 0-.927-.103-1.284-.31-.115-.252-.175-.55-.177-.894v-.136c0-.157.01-.341.033-.555v-.161c-.041-.27-.15-.429-.328-.473h-.054c-.271.108-.454.303-.55.583v.108c.042.18.091.393.151.637l-.24.77c-.234.305-.544.46-.932.46h-.047l-.383-.029c-.279 0-.5.162-.66.488.139.197.347.298.631.298l.495-.029.467.082c.4.155.604.514.604 1.081v.136l-.138.542.083.542-.11.65v.027l.11.622-.164.703c.146.637.328 1.06.55 1.27.31.324.63.55.961.676l.961.136h.219c.292-.064.6-.162.92-.298.586-.32.878-.788.878-1.407v-.012l.122-.65-.096-.583c-.167-.208-.297-.31-.404-.31zM40.706 73.71c-.69-.595-1.193-.893-1.51-.893l-1.126-.19h-.138c-.307 0-.7.144-1.18.434l-1.18.215c-.104 0-.235.198-.386.596-.284.305-.458.585-.52.84-.22.382-.329.698-.329.947v.053c0 .416.102.83.302 1.245 0 .33.164.663.495 1.002.055.292.146.518.274.675l.74.405c.297.334.49.514.575.542.495.09 1.09.162 1.785.216h.026c.104 0 .307-.047.604-.136 1.245-.442 1.868-.894 1.868-1.353v-.082c0-.15-.102-.267-.302-.352-.151 0-.362.118-.63.352l-.77.243c-.442.252-.81.38-1.096.38l-.495-.028c-.539-.054-.896-.144-1.07-.27-.404-.41-.733-.636-.988-.675-.2-.064-.302-.19-.302-.38v-.19c0-.392.339-.672 1.016-.839h.44l.714-.162c.188 0 .498.054.933.162l.713-.136c.425 0 .837.036 1.235.108h.11c.096 0 .242-.054.44-.162.255-.27.383-.531.383-.785v-.023c0-.113-.055-.267-.164-.46-.128-.603-.284-1.037-.467-1.299zm-.742 1.543c0 .077-.64.192-1.923.352l-1.016-.054h-.411l-.274.025c-.513-.174-.768-.41-.768-.703l.055-.244c.677-.685 1.07-1.027 1.18-1.027l1.154-.136.961.244c.787.377 1.18.757 1.18 1.137 0 .12-.047.257-.138.406zM51.468 78.803c-.18-.136-.404-.259-.68-.372-.367-.203-.55-.429-.55-.675l.029-.703-.11-.596.084-.513-.164-.73.164-.675-.055-.405c-.091-.4-.198-.72-.315-.953-.055-.143-.125-.241-.214-.29-.122-.239-.57-.436-1.339-.595l-.411.054c-.44.1-.66.172-.66.215-.406.18-.763.398-1.07.65-.29.251-.48.38-.576.38h-.054c-.243 0-.425-.19-.55-.568 0-.339-.357-.536-1.07-.595h-.055c-.292.036-.44.154-.44.351v.054c.064.252.254.38.575.38.159.036.26.496.302 1.381l-.11.622v.243l.03.136-.11.622.11.81c0 .199-.037.47-.11.812 0 .28-.04.45-.117.508-.073.05-.16.075-.253.075h-.096c-.115 0-.263.026-.446.074-.362.018-.542.142-.542.373 0 .125.092.244.274.351.328.036.706.108 1.125.216.334-.077.615-.116.844-.116.146 0 .271.016.37.047l.706-.095c.237-.013.357-.095.357-.244v-.054c0-.09-.083-.198-.247-.324-.66-.22-.988-.418-.988-.595l.029-.865.029-.27-.164-.84c0-.207.101-.63.302-1.27.315-.231.526-.429.63-.596l.55-.244.466-.38c.38-.28.782-.418 1.209-.418.224 0 .443.072.659.216.26.233.45.472.57.716l.118.732c-.11.541-.164.91-.164 1.109v.487l-.11.434-.11.92c0 .238-.2.418-.604.54-.495.114-.74.268-.74.46 0 .293.292.465.878.514l1.264-.041c.388.064.719.095.987.095.412 0 .651-.082.722-.25v-.033c-.008-.149-.06-.236-.16-.272zM58.837 76.134c-.12 0-.203.138-.252.413-.092.51-.235.919-.425 1.23-.461.585-.888.878-1.276.878-.05 0-.1-.006-.144-.013l-.575-.414c-.297-.28-.446-.631-.446-1.055v-.19l.055-.65v-.053l-.164-.73.192-.649-.192-.947c.138-.657.456-.988.953-.988.06 0 .12.005.185.013h.412c.216 0 .362-.018.44-.054v.028l.029-.028h.083l.576.12h.138c.357-.064.534-.22.534-.472-.05-.252-.255-.377-.618-.377l-.55.082c-.155 0-.346-.036-.575-.108-.5 0-.927-.103-1.284-.31-.115-.252-.175-.55-.18-.894v-.136c0-.157.01-.341.034-.555v-.161c-.042-.27-.151-.429-.328-.473h-.055c-.271.108-.453.303-.55.583v.108c.042.18.091.393.151.637l-.24.77c-.234.305-.544.46-.932.46h-.047l-.385-.029c-.28 0-.5.162-.66.488.139.197.347.298.631.298l.495-.029.466.082c.401.155.605.514.605 1.081v.136l-.138.542.083.542-.11.65v.027l.11.622-.164.703c.146.637.328 1.06.55 1.27.31.324.63.55.96.676l.962.136h.219c.292-.064.599-.162.92-.298.586-.32.877-.788.877-1.407v-.012l.123-.65-.097-.583c-.159-.208-.289-.31-.396-.31zM62.406 76.498h-.054c-.654.067-1.022.185-1.097.352-.422.308-.63.657-.63 1.055v.028c0 .303.182.662.55 1.08.168.132.515.257 1.041.38h.138c.096 0 .407-.18.933-.541.242-.244.388-.524.44-.84v-.136c0-.138-.073-.292-.219-.459-.279-.614-.643-.919-1.102-.919z"/>
    </g>
</svg>
