<svg xmlns="http://www.w3.org/2000/svg" xmlns:xlink="http://www.w3.org/1999/xlink" width="1197" height="964" viewBox="0 0 1197 964">
    <defs>
        <linearGradient id="prefix__c" x1="8.764%" x2="67.907%" y1="40.3%" y2="94.216%">
            <stop offset="0%" stop-color="#285CF5"/>
            <stop offset="100%" stop-color="#0434BF"/>
        </linearGradient>
        <filter id="prefix__a" width="99.1%" height="101.6%" x="3.2%" y=".3%" filterUnits="objectBoundingBox">
            <feMorphology in="SourceAlpha" operator="dilate" radius="1.5" result="shadowSpreadOuter1"/>
            <feOffset dy="16" in="shadowSpreadOuter1" result="shadowOffsetOuter1"/>
            <feGaussianBlur in="shadowOffsetOuter1" result="shadowBlurOuter1" stdDeviation="8"/>
            <feColorMatrix in="shadowBlurOuter1" values="0 0 0 0 0 0 0 0 0 0.138001187 0 0 0 0 0.749547101 0 0 0 0.24 0"/>
        </filter>
        <path id="prefix__b" d="M975.6-466.398l920.61-75.774c159.624-13.139 299.674 105.61 312.813 265.233.65 7.913.977 15.85.977 23.79v892.578c0 160.163-129.837 290-290 290-7.854 0-15.705-.319-23.533-.956l-700.122-57.003c-119.968-9.767-221.432-92.626-254.977-208.222L720.88-96.554c-44.637-153.817 43.872-314.695 197.689-359.332 18.611-5.4 37.718-8.922 57.032-10.512z"/>
    </defs>
    <g fill="none" fill-rule="evenodd" transform="translate(-723)">
        <use fill="#000" filter="url(#prefix__a)" xlink:href="#prefix__b"/>
        <use fill="url(#prefix__c)" xlink:href="#prefix__b"/>
    </g>
</svg>
